<svg width="860" height="861" viewBox="0 0 860 861" fill="none" xmlns="http://www.w3.org/2000/svg">
<g clip-path="url(#clip0_913_6)">
<path d="M847.134 534.712C789.698 765.097 556.355 905.305 325.942 847.854C95.626 790.418 -44.582 557.061 12.8793 326.694C70.2901 96.2837 303.633 -43.9347 533.974 13.5013C764.37 70.9374 904.57 304.32 847.127 534.716L847.131 534.712H847.134Z" fill="#F7931A"/>
<path d="M619.633 369.411C628.192 312.181 584.621 281.418 525.041 260.896L544.369 183.373L497.178 171.614L478.363 247.096C465.957 244.002 453.216 241.086 440.554 238.196L459.506 162.216L412.344 150.457L393.006 227.955C382.739 225.617 372.656 223.307 362.873 220.873L362.928 220.629L297.851 204.378L285.297 254.781C285.297 254.781 320.309 262.807 319.571 263.301C338.681 268.07 342.136 280.72 341.563 290.747L319.546 379.064C320.862 379.398 322.569 379.882 324.452 380.638C322.878 380.247 321.202 379.821 319.464 379.405L288.604 503.124C286.268 508.93 280.341 517.643 266.98 514.334C267.453 515.02 232.681 505.775 232.681 505.775L209.252 559.793L270.663 575.102C282.088 577.967 293.283 580.965 304.308 583.783L284.78 662.196L331.916 673.955L351.255 596.375C364.132 599.87 376.629 603.095 388.863 606.134L369.589 683.349L416.782 695.107L436.308 616.842C516.778 632.071 577.285 625.931 602.753 553.146C623.275 494.546 601.732 460.745 559.397 438.703C590.231 431.592 613.457 411.311 619.649 369.418L619.635 369.407L619.633 369.411ZM511.813 520.603C497.229 579.203 398.563 547.525 366.575 539.582L392.489 435.699C424.475 443.685 527.055 459.488 511.815 520.603H511.813ZM526.407 368.562C513.103 421.866 430.983 394.785 404.344 388.145L427.839 293.929C454.478 300.57 540.266 312.963 526.411 368.562H526.407Z" fill="white"/>
</g>
<defs>
<clipPath id="clip0_913_6">
<rect width="860" height="860.097" fill="white" transform="translate(0 0.632812)"/>
</clipPath>
</defs>
</svg>
