<svg width="870" height="134" viewBox="0 0 870 134" fill="none" xmlns="http://www.w3.org/2000/svg">
<path d="M357.248 131.309H321.54V77.4627C321.54 64.9931 318.517 58.5694 311.526 58.5694C302.646 58.5694 296.978 67.6382 296.978 85.209V131.309H261.27V77.4627C261.27 64.9931 258.247 58.5694 251.256 58.5694C242.376 58.5694 236.708 67.6382 236.708 85.209V131.309H201V31.9298H235.575V51.7678C241.999 36.6531 252.579 29.8515 266.371 29.8515C279.407 29.8515 292.066 36.2752 295.845 51.5789C302.268 36.6531 312.849 29.8515 326.641 29.8515C342.322 29.8515 357.248 38.9203 357.248 61.4034V131.309Z" fill="black"/>
<path d="M472.83 87.6652H408.592C409.537 100.702 414.26 107.692 423.329 107.692C431.453 107.692 435.61 102.402 436.554 95.6004H472.641C469.051 119.217 451.669 133.576 424.651 133.576C392.344 133.576 372.317 114.683 372.317 82.9418C372.317 49.3117 392.533 29.8515 424.651 29.8515C452.425 29.8515 473.396 45.344 473.396 79.7299L472.83 87.6652ZM409.159 71.4169H437.31C435.988 61.5923 432.209 55.5465 423.329 55.5465C415.394 55.5465 410.859 61.2145 409.159 71.4169Z" fill="black"/>
<path d="M553.061 103.536V131.309C546.827 133.198 539.08 133.576 537.758 133.576C498.837 133.576 495.059 113.927 495.059 85.209V58.7583H482.022V31.9298H495.059V8.12415H530.767V31.9298H553.061V58.7583H530.767V85.398C530.767 98.4344 533.223 103.536 542.481 103.536H553.061Z" fill="black"/>
<path d="M611.831 78.7853H600.684V54.7907H611.643C624.301 54.7907 632.047 50.0674 632.047 37.9756C632.047 29.2847 626.568 24.7503 617.877 24.7503C610.32 24.7503 602.385 28.7179 602.385 45.9109H566.487C566.865 9.06882 598.039 0 617.688 0C647.162 0 668.134 12.4696 668.134 33.6302C668.134 50.8231 660.387 59.703 645.462 63.4817C660.198 65.7489 671.912 75.3845 671.912 94.6557C671.912 117.895 651.319 133.765 618.633 133.765C594.639 133.765 565.543 124.129 565.165 87.6652H601.44C601.44 102.402 609.375 108.637 618.822 108.637C629.402 108.637 635.259 102.78 635.259 93.1442C635.259 81.6193 624.112 78.7853 611.831 78.7853Z" fill="black"/>
<path d="M734.95 133.576C703.776 133.576 684.315 114.305 684.315 81.8082C684.315 48.9338 703.776 29.8515 734.95 29.8515C766.124 29.8515 785.584 48.9338 785.584 81.8082C785.584 114.305 766.124 133.576 734.95 133.576ZM734.95 107.692C744.774 107.692 749.498 98.4344 749.498 81.8082C749.498 64.9931 744.774 55.5465 734.95 55.5465C725.314 55.5465 720.402 64.9931 720.402 81.8082C720.402 98.4344 725.314 107.692 734.95 107.692Z" fill="black"/>
<path d="M836.72 131.309H801.011V31.9298H835.586V51.0121C841.821 36.0863 850.701 29.8515 862.226 29.8515C864.493 29.8515 867.894 30.2294 869.594 30.7962V61.2145H857.503C844.466 61.2145 836.72 67.4493 836.72 83.8865V131.309Z" fill="black"/>
<path d="M46.5912 15.1446C55.0012 0.662332 73.6273 -4.29965 88.1938 4.06169C102.76 12.423 107.751 30.9414 99.3412 45.4237L56.8353 118.62C48.4253 133.103 29.7992 138.065 15.2327 129.703C0.666189 121.342 -4.32466 102.824 4.08531 88.3412L46.5912 15.1446Z" fill="black"/>
<path d="M135.383 49.7852C156.699 49.7853 173.979 67.0664 173.979 88.3828C173.979 109.699 156.699 126.979 135.383 126.979C114.066 126.979 96.7853 109.699 96.7852 88.3828C96.7852 67.0662 114.066 49.7852 135.383 49.7852Z" fill="black" stroke="black" stroke-width="13.5708"/>
</svg>
